<?xml version="1.0" encoding="utf-8"?>
<!-- Generator: Adobe Illustrator 25.4.1, SVG Export Plug-In . SVG Version: 6.00 Build 0)  -->
<svg version="1.1" id="Layer_1" xmlns="http://www.w3.org/2000/svg" xmlns:xlink="http://www.w3.org/1999/xlink" x="0px" y="0px"
	 viewBox="0 0 800 800" style="enable-background:new 0 0 800 800;" xml:space="preserve">
<style type="text/css">
	.st0{fill:#FFFFFF;}
	.st1{fill:#231F20;}
	.st2{fill:#FFFFFF;stroke:#231F20;stroke-miterlimit:10;}
	.st3{fill:none;stroke:#231F20;stroke-width:10;stroke-miterlimit:10;}
</style>
<rect x="0.3" y="0.3" class="st0" width="799.5" height="799.5"/>
<path class="st0" d="M400,717.8c-72.7,0-141.1-31.1-192.5-87.7S128,498.7,128,418.9s28.3-154.8,79.6-211.2s119.7-87.7,192.5-87.7
	s141.1,31.1,192.5,87.7S672,339.2,672,418.9s-28.3,154.8-79.6,211.2S472.7,717.8,400,717.8z"/>
<ellipse class="st0" cx="400" cy="418.9" rx="267.7" ry="294.5"/>
<path class="st1" d="M400,718.2c-72.8,0-141.3-31.2-192.8-87.8s-79.7-131.6-79.7-211.5s28.3-155,79.7-211.5s119.9-87.8,192.8-87.8
	s141.3,31.2,192.8,87.8c51.5,56.6,79.7,131.6,79.7,211.5s-28.3,155-79.7,211.5C541.4,687,472.8,718.2,400,718.2z M400,129.3
	c-145,0-262.9,129.9-262.9,289.6S255,708.5,400,708.5s262.9-129.9,262.9-289.6S545,129.3,400,129.3L400,129.3z"/>
<path class="st1" d="M400,713.8c-71.6,0-139-30.7-189.6-86.4c-50.6-55.7-78.5-129.8-78.5-208.5s27.9-152.8,78.5-208.5
	S328.4,124,400,124s139,30.7,189.6,86.4c50.6,55.7,78.5,129.7,78.5,208.5s-27.8,152.8-78.5,208.5C538.9,683.1,471.6,713.8,400,713.8
	z M400,124.9c-147.4,0-267.3,131.9-267.3,294S252.6,713,400,713s267.3-131.9,267.3-294S547.4,124.9,400,124.9L400,124.9z"/>
<ellipse class="st1" cx="296" cy="450.5" rx="31" ry="31.6"/>
<path class="st0" d="M655.4,284.5C607,181.6,508.9,117.7,399.2,117.7S191.3,181.6,143,284.5l-7.6-3.7
	c23.8-50.7,60.5-93.6,106.3-123.9c95.3-63.6,219.6-63.6,314.9,0c45.7,30.4,82.5,73.2,106.3,123.9L655.4,284.5z"/>
<path class="st0" d="M139.2,282.7c47.1-100.2,145.8-169.3,260-169.3s212.9,69,260,169.3"/>
<path class="st1" d="M655,284.7c-48.3-102.8-146.3-166.6-255.8-166.6s-207.6,63.8-255.9,166.6l-1.8,3.9l-8.3-4l1.9-3.9
	c23.9-50.8,60.7-93.7,106.5-124.1c95.5-63.7,219.9-63.7,315.3,0c45.8,30.4,82.6,73.3,106.5,124.1l1.8,3.9l-8.3,4L655,284.7z"/>
<path class="st1" d="M658.8,282.9c-49-104.2-148.4-169-259.6-169s-210.7,64.8-259.6,169l-0.8-0.4c23.5-50.1,59.8-92.4,105-122.4
	c94.1-62.8,216.7-62.8,310.8,0c45.2,30,81.5,72.3,105,122.4L658.8,282.9z"/>
<path class="st2" d="M328,133"/>
<path class="st2" d="M328,133"/>
<path class="st2" d="M466.1,133"/>
<path class="st2" d="M466.1,133"/>
<path class="st0" d="M333.8,123.6l-7.9-2.9c8-22.7,37.3-38.5,71.1-38.5c32.9,0,61.9,15.3,70.6,37.2l-7.8,3.2
	c-7.4-18.8-33.3-31.8-62.9-31.8C367.2,90.7,340.6,104.5,333.8,123.6z"/>
<path class="st0" d="M463.7,121c-7.9-19.9-34.8-34.5-66.7-34.5c-32.6,0-59.9,15.2-67.1,35.7v160.5H125.7
	c-21.7,0-39.3,18.4-39.3,41.1c0,22.7,17.6,41.1,39.3,41.1h548.6c21.7,0,39.3-18.4,39.3-41.1c0-22.7-17.6-41.1-39.3-41.1H463.7V121z"
	/>
<path class="st1" d="M324.1,124.6l1.4-4c8.1-22.9,37.5-38.8,71.5-38.8c33.1,0,62.2,15.4,71,37.5l1.6,4l-8.6,3.5l-1.6-4
	c-7.4-18.6-33-31.6-62.4-31.6c-30.2,0-56,13.4-62.8,32.6l-1.4,4L324.1,124.6z"/>
<path class="st1" d="M330.3,122.3l-0.8-0.3c7.5-21.1,35.3-36,67.5-36c31.4,0,59,14.3,67.1,34.8l-0.8,0.3
	c-8-20.2-35.3-34.2-66.3-34.2C365.1,86.9,337.7,101.4,330.3,122.3z"/>
<rect x="325.3" y="117.9" class="st1" width="9.2" height="164.8"/>
<rect x="459.1" y="116.7" class="st1" width="9.2" height="166"/>
<polygon class="st1" points="210.5,205.7 219.3,203.1 244.8,279.6 236,282.3 "/>
<polygon class="st1" points="554.5,280 579.9,203.1 588.7,205.7 563.2,282.7 "/>
<path class="st0" d="M674.3,369.1H125.7c-24,0-43.5-20.3-43.5-45.3c0-25,19.5-45.3,43.5-45.3h204.2v8.6H125.7
	c-19.4,0-35.1,16.5-35.1,36.8c0,20.3,15.8,36.8,35.1,36.8h548.6c19.4,0,35.1-16.5,35.1-36.8c0-20.3-15.8-36.8-35.1-36.8H463.7v-8.5
	h210.6c24,0,43.5,20.3,43.5,45.3S698.3,369.1,674.3,369.1z"/>
<path class="st1" d="M125.7,369.5c-24.2,0-43.9-20.5-43.9-45.7s19.7-45.7,43.9-45.7h208.4v9.4H125.7c-19.1,0-34.7,16.3-34.7,36.4
	c0,20,15.6,36.4,34.7,36.4h548.6c19.1,0,34.7-16.3,34.7-36.4s-15.6-36.4-34.7-36.4H459.5V278h214.8c24.2,0,43.9,20.5,43.9,45.7
	s-19.7,45.7-43.9,45.7L125.7,369.5z"/>
<ellipse class="st1" cx="502.3" cy="450.5" rx="31" ry="31.6"/>
<line class="st3" x1="345.2" y1="598.5" x2="444" y2="598.5"/>
</svg>
