<svg id="Capa_1" data-name="Capa 1" xmlns="http://www.w3.org/2000/svg" viewBox="0 0 800 800"><defs><style>.cls-1{fill:#fff;}</style></defs><path d="M160,0H0V800H800V0Zm0,640V160H640V640M26.67,26.67H133.33V640H120V626.67a13.34,13.34,0,1,0-26.67,0V640H80V546.67a13.34,13.34,0,1,0-26.67,0V640H26.67Zm0,746.66V666.67H640v26.66H573.33a13.34,13.34,0,0,0,0,26.67H640v13.33H600A13.34,13.34,0,0,0,600,760h40v13.33Zm746.66,0H666.67V160h26.66v66.67a13.34,13.34,0,0,0,26.67,0V160h13.33v40A13.34,13.34,0,0,0,760,200V160h13.33ZM640,133.33H160V120h26.67a13.34,13.34,0,0,0,0-26.67H160V80h40a13.34,13.34,0,0,0,0-26.67H160V26.67H773.33V133.33Z"/><circle cx="733.33" cy="53.33" r="13.33"/><circle cx="680" cy="53.33" r="13.33"/><circle cx="733.33" cy="106.67" r="13.33"/><circle cx="680" cy="106.67" r="13.33"/><circle cx="746.67" cy="733.33" r="13.33"/><circle cx="746.67" cy="680" r="13.33"/><circle cx="693.33" cy="733.33" r="13.33"/><circle cx="693.33" cy="680" r="13.33"/><circle cx="66.67" cy="746.67" r="13.33"/><circle cx="120" cy="746.67" r="13.33"/><circle cx="66.67" cy="693.33" r="13.33"/><circle cx="120" cy="693.33" r="13.33"/><circle cx="53.33" cy="66.67" r="13.33"/><circle cx="53.33" cy="120" r="13.33"/><circle cx="106.67" cy="66.67" r="13.33"/><circle cx="106.67" cy="120" r="13.33"/><path class="cls-1" d="M308,379.55v-40.9a92,92,0,0,1,184,0v40.9"/><path class="cls-1" d="M481.8,553.38H318.2c-17.38,0-30.67-13.3-30.67-30.68V400c0-17.38,13.29-30.68,30.67-30.68H481.8c17.38,0,30.67,13.3,30.67,30.68V522.7C512.47,540.08,499.18,553.38,481.8,553.38Z"/><path d="M492,379.55H471.58v-40.9a71.58,71.58,0,1,0-143.15,0v40.9H308v-40.9a92,92,0,0,1,184,0Z"/><path d="M481.8,553.38H318.2c-17.38,0-30.67-13.3-30.67-30.68V400c0-17.38,13.29-30.68,30.67-30.68H481.8c17.38,0,30.67,13.3,30.67,30.68V522.7C512.47,540.08,499.18,553.38,481.8,553.38ZM318.2,389.78c-6.14,0-10.22,4.08-10.22,10.22V522.7c0,6.13,4.08,10.22,10.22,10.22H481.8c6.13,0,10.23-4.09,10.23-10.22V400c0-6.14-4.1-10.22-10.23-10.22Z"/><circle cx="400" cy="430.68" r="20.45"/><path d="M405.11,430.68H394.89L384.66,492h30.68Z"/></svg>