<svg xmlns="http://www.w3.org/2000/svg" xmlns:xlink="http://www.w3.org/1999/xlink" xmlns:lucid="lucid" width="520" height="360"><g transform="translate(-380 -300)" lucid:page-tab-id="~Ere~C4kHaEQ"><path d="M0 0h1760v1360H0z" fill="#fff"/><path d="M400 326c0-3.3 2.7-6 6-6h148c3.3 0 6 2.7 6 6v108c0 3.3-2.7 6-6 6H406c-3.3 0-6-2.7-6-6z" stroke="#5e5e5e" stroke-width="3" fill="#fff"/><path d="M550 330h-15v20h15z" stroke="#5e5e5e" fill="#fff"/><path d="M540 333.33h-10v3.34h10zm0 10h-10v3.34h10z" stroke="#5e5e5e" fill="#fff"/><use xlink:href="#a" transform="matrix(1,0,0,1,400,320) translate(26.02351851851852 62.77777777777778)"/><use xlink:href="#b" transform="matrix(1,0,0,1,400,320) translate(77.38154320987655 62.77777777777778)"/><path d="M400 526c0-3.3 2.7-6 6-6h148c3.3 0 6 2.7 6 6v108c0 3.3-2.7 6-6 6H406c-3.3 0-6-2.7-6-6z" stroke="#5e5e5e" stroke-width="3" fill="#fff"/><path d="M550 530h-15v20h15z" stroke="#5e5e5e" fill="#fff"/><path d="M540 533.33h-10v3.34h10zm0 10h-10v3.34h10z" stroke="#5e5e5e" fill="#fff"/><use xlink:href="#c" transform="matrix(1,0,0,1,400,520) translate(38.12228395061728 62.77777777777778)"/><use xlink:href="#b" transform="matrix(1,0,0,1,400,520) translate(65.28277777777777 62.77777777777778)"/><path d="M720 426c0-3.3 2.7-6 6-6h148c3.3 0 6 2.7 6 6v108c0 3.3-2.7 6-6 6H726c-3.3 0-6-2.7-6-6z" stroke="#5e5e5e" stroke-width="3" fill="#fff"/><path d="M870 430h-15v20h15z" stroke="#5e5e5e" fill="#fff"/><path d="M860 433.33h-10v3.34h10zm0 10h-10v3.34h10z" stroke="#5e5e5e" fill="#fff"/><use xlink:href="#d" transform="matrix(1,0,0,1,720,420) translate(47.35067901234568 62.77777777777778)"/><path d="M690 480h-11M645 480h-5" stroke="#5e5e5e" stroke-width="3" fill="none"/><path d="M665 494c-7.73 0-14-6.27-14-14 0-7.74 6.27-14 14-14s14 6.26 14 14c0 7.73-6.27 14-14 14z" stroke="#5e5e5e" stroke-width="3" fill="#fff"/><path d="M665 460c-11.05 0-20 8.95-20 20 0 11.04 8.95 20 20 20" stroke="#5e5e5e" stroke-width="3" fill="none"/><path d="M690 480c0 .44-.36.8-.8.8h-9.4c-.44 0-.8-.36-.8-.8 0-.45.36-.8.8-.8h9.4c.44 0 .8.35.8.8z" fill="none"/><path d="M691 480h26.5" stroke="#5e5e5e" stroke-width="2" fill="none"/><path d="M691.03 481H690v-2h1.03M718.5 481h-1.03v-2h1.03" fill="#5e5e5e"/><path d="M639 480h-32.25c-3.3 0-6-2.7-6-6v-57.44c0-3.3-2.7-6-6-6H562.5" stroke="#5e5e5e" stroke-width="2" fill="none"/><path d="M640 481h-1.03v-2H640M562.53 411.56h-1.03v-2h1.03" fill="#5e5e5e"/><path d="M562.5 570.67h32.25c3.3 0 6-2.7 6-6V486c0-3.32 2.7-6 6-6H639" stroke="#5e5e5e" stroke-width="2" fill="none"/><path d="M562.53 571.67h-1.03v-2h1.03M640 481h-1.03v-2H640" fill="#5e5e5e"/><path d="M620 426c0-3.3 2.7-6 6-6h68c3.3 0 6 2.7 6 6v28c0 3.3-2.7 6-6 6h-68c-3.3 0-6-2.7-6-6z" stroke="#000" stroke-opacity="0" stroke-width="3" fill="#fff" fill-opacity="0"/><g><use xlink:href="#e" transform="matrix(1,0,0,1,625,425) translate(6.080246913580247 19.65277777777778)"/></g><defs><path fill="#333" d="M266 0h-40l-56-210L115 0H75L2-248h35L96-30l15-64 43-154h32l59 218 59-218h35" id="f"/><path fill="#333" d="M100-194c63 0 86 42 84 106H49c0 40 14 67 53 68 26 1 43-12 49-29l28 8c-11 28-37 45-77 45C44 4 14-33 15-96c1-61 26-98 85-98zm52 81c6-60-76-77-97-28-3 7-6 17-6 28h103" id="g"/><path fill="#333" d="M115-194c53 0 69 39 70 98 0 66-23 100-70 100C84 3 66-7 56-30L54 0H23l1-261h32v101c10-23 28-34 59-34zm-8 174c40 0 45-34 45-75 0-40-5-75-45-74-42 0-51 32-51 76 0 43 10 73 51 73" id="h"/><g id="a"><use transform="matrix(0.06172839506172839,0,0,0.06172839506172839,0,0)" xlink:href="#f"/><use transform="matrix(0.06172839506172839,0,0,0.06172839506172839,20.493827160493826,0)" xlink:href="#g"/><use transform="matrix(0.06172839506172839,0,0,0.06172839506172839,32.839506172839506,0)" xlink:href="#h"/></g><path fill="#333" d="M212-179c-10-28-35-45-73-45-59 0-87 40-87 99 0 60 29 101 89 101 43 0 62-24 78-52l27 14C228-24 195 4 139 4 59 4 22-46 18-125c-6-104 99-153 187-111 19 9 31 26 39 46" id="i"/><path fill="#333" d="M24 0v-261h32V0H24" id="j"/><path fill="#333" d="M24-231v-30h32v30H24zM24 0v-190h32V0H24" id="k"/><path fill="#333" d="M117-194c89-4 53 116 60 194h-32v-121c0-31-8-49-39-48C34-167 62-67 57 0H25l-1-190h30c1 10-1 24 2 32 11-22 29-35 61-36" id="l"/><path fill="#333" d="M59-47c-2 24 18 29 38 22v24C64 9 27 4 27-40v-127H5v-23h24l9-43h21v43h35v23H59v120" id="m"/><g id="b"><use transform="matrix(0.06172839506172839,0,0,0.06172839506172839,0,0)" xlink:href="#i"/><use transform="matrix(0.06172839506172839,0,0,0.06172839506172839,15.987654320987653,0)" xlink:href="#j"/><use transform="matrix(0.06172839506172839,0,0,0.06172839506172839,20.864197530864196,0)" xlink:href="#k"/><use transform="matrix(0.06172839506172839,0,0,0.06172839506172839,25.74074074074074,0)" xlink:href="#g"/><use transform="matrix(0.06172839506172839,0,0,0.06172839506172839,38.08641975308642,0)" xlink:href="#l"/><use transform="matrix(0.06172839506172839,0,0,0.06172839506172839,50.432098765432094,0)" xlink:href="#m"/></g><path fill="#333" d="M205 0l-28-72H64L36 0H1l101-248h38L239 0h-34zm-38-99l-47-123c-12 45-31 82-46 123h93" id="n"/><path fill="#333" d="M33 0v-248h34V0H33" id="o"/><g id="c"><use transform="matrix(0.06172839506172839,0,0,0.06172839506172839,0,0)" xlink:href="#n"/><use transform="matrix(0.06172839506172839,0,0,0.06172839506172839,14.814814814814813,0)" xlink:href="#o"/></g><path fill="#333" d="M185-189c-5-48-123-54-124 2 14 75 158 14 163 119 3 78-121 87-175 55-17-10-28-26-33-46l33-7c5 56 141 63 141-1 0-78-155-14-162-118-5-82 145-84 179-34 5 7 8 16 11 25" id="p"/><path fill="#333" d="M114-163C36-179 61-72 57 0H25l-1-190h30c1 12-1 29 2 39 6-27 23-49 58-41v29" id="q"/><path fill="#333" d="M108 0H70L1-190h34L89-25l56-165h34" id="r"/><g id="d"><use transform="matrix(0.06172839506172839,0,0,0.06172839506172839,0,0)" xlink:href="#p"/><use transform="matrix(0.06172839506172839,0,0,0.06172839506172839,14.814814814814813,0)" xlink:href="#g"/><use transform="matrix(0.06172839506172839,0,0,0.06172839506172839,27.160493827160494,0)" xlink:href="#q"/><use transform="matrix(0.06172839506172839,0,0,0.06172839506172839,34.50617283950617,0)" xlink:href="#r"/><use transform="matrix(0.06172839506172839,0,0,0.06172839506172839,45.61728395061728,0)" xlink:href="#g"/><use transform="matrix(0.06172839506172839,0,0,0.06172839506172839,57.962962962962955,0)" xlink:href="#q"/></g><path fill="#333" d="M197 0v-115H63V0H30v-248h33v105h134v-105h34V0h-34" id="s"/><path fill="#333" d="M127-220V0H93v-220H8v-28h204v28h-85" id="t"/><path fill="#333" d="M30-248c87 1 191-15 191 75 0 78-77 80-158 76V0H30v-248zm33 125c57 0 124 11 124-50 0-59-68-47-124-48v98" id="u"/><g id="e"><use transform="matrix(0.06172839506172839,0,0,0.06172839506172839,0,0)" xlink:href="#s"/><use transform="matrix(0.06172839506172839,0,0,0.06172839506172839,15.987654320987653,0)" xlink:href="#t"/><use transform="matrix(0.06172839506172839,0,0,0.06172839506172839,29.50617283950617,0)" xlink:href="#t"/><use transform="matrix(0.06172839506172839,0,0,0.06172839506172839,43.02469135802469,0)" xlink:href="#u"/></g></defs></g></svg>