<?xml version="1.0" encoding="utf-8"?>
<!-- Generator: Adobe Illustrator 25.4.1, SVG Export Plug-In . SVG Version: 6.00 Build 0)  -->
<svg version="1.1" id="Capa_1" xmlns="http://www.w3.org/2000/svg" xmlns:xlink="http://www.w3.org/1999/xlink" x="0px" y="0px"
	 viewBox="0 0 800 800" style="enable-background:new 0 0 800 800;" xml:space="preserve">
<g>
	<path d="M160,0h-26.7H0v640v26.7V800h640h26.7H800V160v-26.7V0H160z M482.7,160c3.6,25.3-3.7,70.6-29.5,104.6
		c-22.7,29.9-53.9,44.2-92.5,42.1c-21.9-1.1-36.4-8.1-44.5-21.6c-19.4-32.2,0.2-95.3,12.6-125H482.7z M293.3,298.8
		c12.9,21.4,35.1,33,66.1,34.5c2.7,0.1,5.5,0.2,8.1,0.2c55,0,88.4-28.4,106.9-52.8c28.1-37,38.7-86.6,35-120.7h86.5
		c-32.9,36.9-58.1,74.8-80.8,108.9c-45.4,68.4-78.2,117.8-141.8,117.8c-109.6,0-139.4,200.8-145.4,253.3H160V539.9
		c25.1-20,125.5-107.2,106.4-209c-8.5-45.5-26.3-59.1-38.1-68.2c-9.4-7.2-14.1-11.2,33.2-102.7h38.6
		C288,192.2,268.6,257.9,293.3,298.8z M599.2,528.9c-14.6-41.6,17.7-80.1,40.8-101.2V640h-46.9c1.3-2.1,2.5-4.2,3.7-6.4
		C605.5,616.7,617.4,580.7,599.2,528.9z M640,160v67.8c-24.1,4.6-50.6,24.6-61.8,86.7c-13.9,76.8-70.2,136.8-143.6,152.8
		c-42.2,9.2-70.1,0.2-70.4,0.1c-6.9-2.3-14.5,1.4-16.9,8.3c-2.4,7,1.3,14.6,8.3,16.9c0.9,0.3,16.4,5.5,41.6,5.5
		c12.2,0,26.7-1.2,43-4.7c83.9-18.3,148.3-86.6,164.1-174.1c6.5-36,18.6-57.2,35.5-63.7v137.5c-21.4,15.8-90.8,73.7-65.9,144.6
		c14.7,41.9,5.9,70-0.7,83c-6.1,12.1-13.3,17.9-16.2,19.3h-23.9c-12.9,0-21.6-2.9-25.8-8.7c-5.9-8.2-3.1-22.3-1.6-26.9l0.7-3.9
		c0.7-21.9-7-40-22.3-52.4C445.2,516.5,369,531.1,358,533.5c-46.5,4.3-59.9,76.1-63.5,106.5h-39.8c8.5-74.6,41.8-226.7,118.6-226.7
		c78,0,117.9-60.1,164-129.7c25.8-38.9,55-82.7,95-123.6C632.3,160,640,160,640,160z M481.9,640H321.4c4.3-32,16.7-78.4,39.5-80
		l2.1-0.3c15.5-3.5,78.6-12.2,104.9,9.5c8.2,6.8,12.2,16.2,12.1,28.8C478.1,604.5,474,623.2,481.9,640z M212.1,283.9
		c9.6,7.4,21.5,16.5,28.2,51.9c13.3,71.2-46.7,137.8-80.2,168.8V160h71.5C187,246.9,185.6,263.5,212.1,283.9z M26.7,26.7h106.7V160
		v480H120v-13.3c0-7.4-6-13.3-13.3-13.3c-7.4,0-13.3,6-13.3,13.3V640H80v-93.3c0-7.4-6-13.3-13.3-13.3c-7.4,0-13.3,6-13.3,13.3V640
		H26.7V26.7z M26.7,773.3V666.7H160h480v26.7h-66.7c-7.4,0-13.3,6-13.3,13.3s6,13.3,13.3,13.3H640v13.3h-40c-7.4,0-13.3,6-13.3,13.3
		s6,13.3,13.3,13.3h40v13.3H26.7z M773.3,773.3H666.7V640V160h26.7v66.7c0,7.4,6,13.3,13.3,13.3s13.3-6,13.3-13.3V160h13.3v40
		c0,7.4,6,13.3,13.3,13.3s13.3-6,13.3-13.3v-40h13.3V773.3z M640,133.3H160V120h26.7c7.4,0,13.3-6,13.3-13.3c0-7.4-6-13.3-13.3-13.3
		H160V80h40c7.4,0,13.3-6,13.3-13.3c0-7.4-6-13.3-13.3-13.3h-40V26.7h613.3v106.7H640z"/>
	<circle cx="733.3" cy="53.3" r="13.3"/>
	<circle cx="680" cy="53.3" r="13.3"/>
	<circle cx="733.3" cy="106.7" r="13.3"/>
	<circle cx="680" cy="106.7" r="13.3"/>
	<circle cx="746.7" cy="733.3" r="13.3"/>
	<circle cx="746.7" cy="680" r="13.3"/>
	<circle cx="693.3" cy="733.3" r="13.3"/>
	<circle cx="693.3" cy="680" r="13.3"/>
	<circle cx="66.7" cy="746.7" r="13.3"/>
	<circle cx="120" cy="746.7" r="13.3"/>
	<circle cx="66.7" cy="693.3" r="13.3"/>
	<circle cx="120" cy="693.3" r="13.3"/>
	<circle cx="53.3" cy="66.7" r="13.3"/>
	<circle cx="53.3" cy="120" r="13.3"/>
	<circle cx="106.7" cy="66.7" r="13.3"/>
	<circle cx="106.7" cy="120" r="13.3"/>
</g>
</svg>
