<svg id="Layer_1" data-name="Layer 1" xmlns="http://www.w3.org/2000/svg" viewBox="0 0 800.02 800.04"><defs><style>.cls-1{fill:none;stroke:#000;stroke-linecap:round;stroke-linejoin:round;stroke-width:5px;}</style></defs><path class="cls-1" d="M2.51,4.28S4.28,2.51,4.28,2.51,2.51,145.7,2.51,145.7,145.49,2.29,145.71,2.51c.4.4-143.2,284.61-143.2,284.61L287.14,2.5,2.51,428.55c.24.23,424-428.09,426.05-426L2.51,570C3.54,571,569.6,2.1,570,2.49,572.8,5.3,2.51,711.39,2.51,711.39,3.89,712.76,711.17,2.24,711.42,2.49c2.21,2.21-655.33,793.32-653.62,795,2.29,2.29,739.7-739.69,739.7-739.69L199.23,797.52S796.29,198,797.5,199.25L340.66,797.51c1.3,1.3,455.57-458.12,456.85-456.85L482.08,797.51S796.4,481,797.51,482.08c.67.67-174,315.42-174,315.42S797,623,797.52,623.49s-32.58,174-32.58,174,32.43-32.74,32.58-32.58" transform="translate(0 0.01)"/><path d="M800,800H0V0H800ZM5,795H795V5H5Z" transform="translate(0 0.01)"/></svg>